# xmcd
#
# Track frame offsets:
#	150
#	18042
#	27280
#	35157
#	46807
#	65607
#	85467
#	99732
#	126697
#	140270
#	161905
#	171855
#	194045
#	203312
#	215332
#
# Disc length: 3053 seconds
#
# Revision: 1
# Processed by: cddbd v1.5.1PL0 Copyright (c) Steve Scherf et al.
# Submitted via: CDex 1.50Beta5
#
DISCID=da0beb0f
DTITLE=FULL MONTY - 「極」Battle.1<新曲録りおろし>
DYEAR=2003
DGENRE=Rock
TTITLE0=FULL MONTY/In Dream
TTITLE1=マッスルドッキング/駆け抜けろ
TTITLE2=BOZO/Punk Rock Baby
TTITLE3=NOB/Harmony of heart
TTITLE4=PET/Shining in the way
TTITLE5=ガンジンルー/ぶってんじゃねえよ
TTITLE6=PAN,THE/ワン フォア オール
TTITLE7=Sugar Hill/In the rain
TTITLE8=MUSHA×KUSHA/やぶれかぶれ
TTITLE9=ゆーこときカズ/On the edge of feel emotion
TTITLE10=BIG HAND FAMILY/New Revolution
TTITLE11=G-FREAK FACTORY/beautiful someday’s
TTITLE12=SHACHI/White Riot
TTITLE13=UNSCANDAL/カルパンチョスカ
TTITLE14=コンコンジャンプ/おっさんの歌
EXTD=
EXTT0=
EXTT1=
EXTT2=
EXTT3=
EXTT4=
EXTT5=
EXTT6=
EXTT7=
EXTT8=
EXTT9=
EXTT10=
EXTT11=
EXTT12=
EXTT13=
EXTT14=
PLAYORDER=
